<svg width="125" height="181" viewBox="0 0 125 181" fill="none" xmlns="http://www.w3.org/2000/svg">
<path d="M78.3778 103.201C91.1476 111.815 100.942 122.188 106.464 131.975C112.003 141.79 113.172 150.867 109.012 157.035C104.851 163.204 95.9974 165.52 84.8215 164.061C73.6786 162.607 60.392 157.412 47.6222 148.799C34.8524 140.185 25.0582 129.812 19.5358 120.025C13.997 110.21 12.8277 101.133 16.9884 94.9648C21.1491 88.7963 30.0026 86.4803 41.1786 87.9388C52.3214 89.3929 65.608 94.5881 78.3778 103.201Z" stroke="#44FFA1"/>
<path d="M90.3778 85.2014C103.148 93.8148 112.942 104.188 118.464 113.974C124.003 123.79 125.172 132.867 121.012 139.035C116.851 145.204 107.997 147.52 96.8215 146.061C85.6786 144.607 72.392 139.412 59.6222 130.798C46.8524 122.185 37.0582 111.812 31.5358 102.025C25.997 92.2096 24.8277 83.1333 28.9884 76.9647C33.1491 70.7962 42.0026 68.4803 53.1786 69.9387C64.3214 71.3928 77.608 76.5881 90.3778 85.2014Z" stroke="#44FFA1"/>
<path opacity="0.75" d="M101.378 68.2014C114.148 76.8148 123.942 87.1877 129.464 96.9745C135.003 106.79 136.172 115.867 132.012 122.035C127.851 128.204 118.997 130.52 107.821 129.061C96.6786 127.607 83.392 122.412 70.6222 113.798C57.8524 105.185 48.0582 94.8121 42.5358 85.0254C36.997 75.2096 35.8277 66.1333 39.9884 59.9647C44.1491 53.7962 53.0026 51.4803 64.1786 52.9387C75.3214 54.3928 88.608 59.5881 101.378 68.2014Z" stroke="#44FFA1"/>
<path opacity="0.5" d="M113.378 50.2014C126.148 58.8148 135.942 69.1877 141.464 78.9745C147.003 88.7903 148.172 97.8666 144.012 104.035C139.851 110.204 130.997 112.52 119.821 111.061C108.679 109.607 95.392 104.412 82.6222 95.7985C69.8524 87.1851 60.0582 76.8121 54.5358 67.0254C48.997 57.2096 47.8277 48.1333 51.9884 41.9647C56.1491 35.7962 65.0026 33.4803 76.1786 34.9387C87.3214 36.3928 100.608 41.5881 113.378 50.2014Z" stroke="#44FFA1"/>
<path opacity="0.25" d="M126.378 32.2014C139.148 40.8148 148.942 51.1877 154.464 60.9745C160.003 70.7903 161.172 79.8666 157.012 86.0351C152.851 92.2037 143.997 94.5196 132.821 93.0612C121.679 91.6071 108.392 86.4118 95.6222 77.7985C82.8524 69.1851 73.0582 58.8121 67.5358 49.0254C61.997 39.2096 60.8277 30.1333 64.9884 23.9647C69.1491 17.7962 78.0026 15.4803 89.1786 16.9387C100.321 18.3928 113.608 23.5881 126.378 32.2014Z" stroke="#44FFA1"/>
</svg>
