<svg width="20" height="17" viewBox="0 0 20 17" fill="none" xmlns="http://www.w3.org/2000/svg">
<path d="M20 2.17203C19.2642 2.4987 18.4733 2.7187 17.6433 2.81786C18.4908 2.31036 19.1417 1.5062 19.4475 0.547864C18.655 1.01786 17.7767 1.35953 16.8417 1.5437C16.0942 0.746197 15.0267 0.247864 13.8467 0.247864C11.1975 0.247864 9.25083 2.71953 9.84917 5.28536C6.44 5.11453 3.41667 3.4812 1.3925 0.998697C0.3175 2.84286 0.835 5.25536 2.66167 6.47703C1.99 6.45536 1.35667 6.2712 0.804167 5.9637C0.759167 7.86453 2.12167 9.64286 4.095 10.0387C3.5175 10.1954 2.885 10.232 2.24167 10.1087C2.76333 11.7387 4.27833 12.9245 6.075 12.9579C4.35 14.3104 2.17667 14.9145 0 14.6579C1.81583 15.822 3.97333 16.5012 6.29 16.5012C13.9083 16.5012 18.2125 10.067 17.9525 4.2962C18.7542 3.71703 19.45 2.99453 20 2.17203Z" fill="#584D62"/>
</svg>
